<svg width="392" height="22" viewBox="0 0 392 22" fill="none" xmlns="http://www.w3.org/2000/svg">
<path d="M12.373 6.1543H8.01758V18H5.08789V6.1543H0.791016V3.78125H12.373V6.1543ZM26.459 11.2129C26.459 12.6126 26.2116 13.8398 25.7168 14.8945C25.222 15.9492 24.5124 16.763 23.5879 17.3359C22.6699 17.9089 21.6152 18.1953 20.4238 18.1953C19.2454 18.1953 18.194 17.9121 17.2695 17.3457C16.3451 16.7793 15.6289 15.972 15.1211 14.9238C14.6133 13.8691 14.3561 12.6582 14.3496 11.291V10.5879C14.3496 9.18815 14.6003 7.95768 15.1016 6.89648C15.6094 5.82878 16.3223 5.01172 17.2402 4.44531C18.1647 3.8724 19.2194 3.58594 20.4043 3.58594C21.5892 3.58594 22.6406 3.8724 23.5586 4.44531C24.4831 5.01172 25.196 5.82878 25.6973 6.89648C26.2051 7.95768 26.459 9.1849 26.459 10.5781V11.2129ZM23.4902 10.5684C23.4902 9.07747 23.2233 7.94466 22.6895 7.16992C22.1556 6.39518 21.3939 6.00781 20.4043 6.00781C19.4212 6.00781 18.6628 6.39193 18.1289 7.16016C17.5951 7.92188 17.3249 9.04167 17.3184 10.5195V11.2129C17.3184 12.6647 17.5853 13.791 18.1191 14.5918C18.653 15.3926 19.4212 15.793 20.4238 15.793C21.4069 15.793 22.1621 15.4089 22.6895 14.6406C23.2168 13.8659 23.4837 12.7396 23.4902 11.2617V10.5684ZM32.5176 12.9902V18H29.5879V3.78125H35.1348C36.2025 3.78125 37.14 3.97656 37.9473 4.36719C38.7611 4.75781 39.3861 5.31445 39.8223 6.03711C40.2585 6.75326 40.4766 7.57031 40.4766 8.48828C40.4766 9.88151 39.998 10.9818 39.041 11.7891C38.0905 12.5898 36.7721 12.9902 35.0859 12.9902H32.5176ZM32.5176 10.6172H35.1348C35.9095 10.6172 36.4987 10.4349 36.9023 10.0703C37.3125 9.70573 37.5176 9.1849 37.5176 8.50781C37.5176 7.8112 37.3125 7.24805 36.9023 6.81836C36.4922 6.38867 35.9258 6.16732 35.2031 6.1543H32.5176V10.6172ZM52.8242 6.1543H46.4473V18H43.5176V3.78125H52.8242V6.1543ZM66.666 11.2129C66.666 12.6126 66.4186 13.8398 65.9238 14.8945C65.429 15.9492 64.7194 16.763 63.7949 17.3359C62.877 17.9089 61.8223 18.1953 60.6309 18.1953C59.4525 18.1953 58.401 17.9121 57.4766 17.3457C56.5521 16.7793 55.8359 15.972 55.3281 14.9238C54.8203 13.8691 54.5632 12.6582 54.5566 11.291V10.5879C54.5566 9.18815 54.8073 7.95768 55.3086 6.89648C55.8164 5.82878 56.5293 5.01172 57.4473 4.44531C58.3717 3.8724 59.4264 3.58594 60.6113 3.58594C61.7962 3.58594 62.8477 3.8724 63.7656 4.44531C64.6901 5.01172 65.403 5.82878 65.9043 6.89648C66.4121 7.95768 66.666 9.1849 66.666 10.5781V11.2129ZM63.6973 10.5684C63.6973 9.07747 63.4303 7.94466 62.8965 7.16992C62.3626 6.39518 61.6009 6.00781 60.6113 6.00781C59.6283 6.00781 58.8698 6.39193 58.3359 7.16016C57.8021 7.92188 57.5319 9.04167 57.5254 10.5195V11.2129C57.5254 12.6647 57.7923 13.791 58.3262 14.5918C58.86 15.3926 59.6283 15.793 60.6309 15.793C61.6139 15.793 62.3691 15.4089 62.8965 14.6406C63.4238 13.8659 63.6908 12.7396 63.6973 11.2617V10.5684ZM69.7949 18V3.78125H74.7754C76.5007 3.78125 77.8092 4.11328 78.7012 4.77734C79.5931 5.4349 80.0391 6.40169 80.0391 7.67773C80.0391 8.37435 79.86 8.98958 79.502 9.52344C79.1439 10.0508 78.6458 10.4382 78.0078 10.6855C78.737 10.8678 79.3099 11.2357 79.7266 11.7891C80.1497 12.3424 80.3613 13.0195 80.3613 13.8203C80.3613 15.1875 79.9251 16.2227 79.0527 16.9258C78.1803 17.6289 76.9368 17.987 75.3223 18H69.7949ZM72.7246 11.8086V15.6465H75.2344C75.9245 15.6465 76.4616 15.4837 76.8457 15.1582C77.2363 14.8262 77.4316 14.3704 77.4316 13.791C77.4316 12.4889 76.7578 11.8281 75.4102 11.8086H72.7246ZM72.7246 9.73828H74.8926C76.3704 9.71224 77.1094 9.12305 77.1094 7.9707C77.1094 7.32617 76.9206 6.86393 76.543 6.58398C76.1719 6.29753 75.5827 6.1543 74.7754 6.1543H72.7246V9.73828ZM95.248 11.2129C95.248 12.6126 95.0007 13.8398 94.5059 14.8945C94.0111 15.9492 93.3014 16.763 92.377 17.3359C91.459 17.9089 90.4043 18.1953 89.2129 18.1953C88.0345 18.1953 86.9831 17.9121 86.0586 17.3457C85.1341 16.7793 84.418 15.972 83.9102 14.9238C83.4023 13.8691 83.1452 12.6582 83.1387 11.291V10.5879C83.1387 9.18815 83.3893 7.95768 83.8906 6.89648C84.3984 5.82878 85.1113 5.01172 86.0293 4.44531C86.9538 3.8724 88.0085 3.58594 89.1934 3.58594C90.3783 3.58594 91.4297 3.8724 92.3477 4.44531C93.2721 5.01172 93.985 5.82878 94.4863 6.89648C94.9941 7.95768 95.248 9.1849 95.248 10.5781V11.2129ZM92.2793 10.5684C92.2793 9.07747 92.0124 7.94466 91.4785 7.16992C90.9447 6.39518 90.1829 6.00781 89.1934 6.00781C88.2103 6.00781 87.4518 6.39193 86.918 7.16016C86.3841 7.92188 86.1139 9.04167 86.1074 10.5195V11.2129C86.1074 12.6647 86.3743 13.791 86.9082 14.5918C87.4421 15.3926 88.2103 15.793 89.2129 15.793C90.196 15.793 90.9512 15.4089 91.4785 14.6406C92.0059 13.8659 92.2728 12.7396 92.2793 11.2617V10.5684ZM103.68 13.0488H98.1816V10.7734H103.68V13.0488ZM110.061 12.9902V18H107.131V3.78125H112.678C113.745 3.78125 114.683 3.97656 115.49 4.36719C116.304 4.75781 116.929 5.31445 117.365 6.03711C117.801 6.75326 118.02 7.57031 118.02 8.48828C118.02 9.88151 117.541 10.9818 116.584 11.7891C115.633 12.5898 114.315 12.9902 112.629 12.9902H110.061ZM110.061 10.6172H112.678C113.452 10.6172 114.042 10.4349 114.445 10.0703C114.855 9.70573 115.061 9.1849 115.061 8.50781C115.061 7.8112 114.855 7.24805 114.445 6.81836C114.035 6.38867 113.469 6.16732 112.746 6.1543H110.061V10.6172ZM127.33 15.0703H122.193L121.217 18H118.102L123.395 3.78125H126.109L131.432 18H128.316L127.33 15.0703ZM122.984 12.6973H126.539L124.752 7.375L122.984 12.6973ZM140.771 7.69727C140.771 7.1569 140.56 6.73372 140.137 6.42773C139.714 6.11523 139.154 5.95898 138.457 5.95898C137.832 5.95898 137.311 6.11523 136.895 6.42773C136.484 6.73372 136.279 7.13411 136.279 7.62891H133.35C133.35 6.86068 133.564 6.17057 133.994 5.55859C134.43 4.9401 135.046 4.45833 135.84 4.11328C136.641 3.76823 137.513 3.5957 138.457 3.5957C140.098 3.5957 141.383 3.94727 142.314 4.65039C143.245 5.35352 143.711 6.34961 143.711 7.63867C143.711 8.27018 143.519 8.85612 143.135 9.39648C142.757 9.93685 142.217 10.3698 141.514 10.6953C142.295 10.9688 142.894 11.3854 143.311 11.9453C143.727 12.4987 143.936 13.1888 143.936 14.0156C143.936 15.2917 143.434 16.3073 142.432 17.0625C141.436 17.8112 140.111 18.1855 138.457 18.1855C137.422 18.1855 136.491 18.0098 135.664 17.6582C134.837 17.3001 134.209 16.8151 133.779 16.2031C133.356 15.5846 133.145 14.8685 133.145 14.0547H136.094C136.094 14.5625 136.315 14.9889 136.758 15.334C137.201 15.6725 137.767 15.8418 138.457 15.8418C139.238 15.8418 139.854 15.666 140.303 15.3145C140.758 14.9629 140.986 14.5169 140.986 13.9766C140.986 13.2344 140.785 12.7038 140.381 12.3848C139.977 12.0592 139.388 11.8965 138.613 11.8965H136.865V9.60156H138.672C140.072 9.58203 140.771 8.94727 140.771 7.69727ZM147.104 18V3.78125H152.084C153.809 3.78125 155.118 4.11328 156.01 4.77734C156.902 5.4349 157.348 6.40169 157.348 7.67773C157.348 8.37435 157.169 8.98958 156.811 9.52344C156.452 10.0508 155.954 10.4382 155.316 10.6855C156.046 10.8678 156.618 11.2357 157.035 11.7891C157.458 12.3424 157.67 13.0195 157.67 13.8203C157.67 15.1875 157.234 16.2227 156.361 16.9258C155.489 17.6289 154.245 17.987 152.631 18H147.104ZM150.033 11.8086V15.6465H152.543C153.233 15.6465 153.77 15.4837 154.154 15.1582C154.545 14.8262 154.74 14.3704 154.74 13.791C154.74 12.4889 154.066 11.8281 152.719 11.8086H150.033ZM150.033 9.73828H152.201C153.679 9.71224 154.418 9.12305 154.418 7.9707C154.418 7.32617 154.229 6.86393 153.852 6.58398C153.48 6.29753 152.891 6.1543 152.084 6.1543H150.033V9.73828ZM169.432 11.8379H163.807V15.6465H170.408V18H160.877V3.78125H170.389V6.1543H163.807V9.54297H169.432V11.8379ZM184.689 3.78125V18H181.75V6.1543H177.961L177.727 11.1738C177.629 12.8665 177.414 14.2012 177.082 15.1777C176.75 16.1478 176.265 16.8607 175.627 17.3164C174.989 17.7656 174.117 17.9935 173.01 18H172.248V15.6465L172.736 15.5977C173.472 15.5 173.996 15.0768 174.309 14.3281C174.628 13.5729 174.829 12.2318 174.914 10.3047L175.158 3.78125H184.689ZM192.887 12.1895H191.197V18H188.268V3.78125H191.197V9.47461H192.535L196.012 3.78125H199.586L195.201 10.5098L200.045 18H196.549L192.887 12.1895ZM210.205 15.0703H205.068L204.092 18H200.977L206.27 3.78125H208.984L214.307 18H211.191L210.205 15.0703ZM205.859 12.6973H209.414L207.627 7.375L205.859 12.6973ZM226.166 6.1543H221.811V18H218.881V6.1543H214.584V3.78125H226.166V6.1543ZM237.4 11.8379H231.775V15.6465H238.377V18H228.846V3.78125H238.357V6.1543H231.775V9.54297H237.4V11.8379ZM252.658 3.78125V18H249.719V6.1543H245.93L245.695 11.1738C245.598 12.8665 245.383 14.2012 245.051 15.1777C244.719 16.1478 244.234 16.8607 243.596 17.3164C242.958 17.7656 242.085 17.9935 240.979 18H240.217V15.6465L240.705 15.5977C241.441 15.5 241.965 15.0768 242.277 14.3281C242.596 13.5729 242.798 12.2318 242.883 10.3047L243.127 3.78125H252.658ZM259.146 8.9082H261.432C263.105 8.9082 264.43 9.3151 265.406 10.1289C266.389 10.9362 266.881 12.0267 266.881 13.4004C266.881 14.7806 266.393 15.8906 265.416 16.7305C264.446 17.5638 263.154 17.987 261.539 18H256.197V3.78125H259.146V8.9082ZM259.146 11.2715V15.6465H261.48C262.229 15.6465 262.825 15.4414 263.268 15.0312C263.717 14.6211 263.941 14.071 263.941 13.3809C263.941 12.7363 263.727 12.2285 263.297 11.8574C262.874 11.4798 262.291 11.2845 261.549 11.2715H259.146ZM281.309 18H278.379V11.9062H272.666V18H269.736V3.78125H272.666V9.54297H278.379V3.78125H281.309V18ZM287.855 8.9082H290.141C291.814 8.9082 293.139 9.3151 294.115 10.1289C295.098 10.9362 295.59 12.0267 295.59 13.4004C295.59 14.7806 295.102 15.8906 294.125 16.7305C293.155 17.5638 291.863 17.987 290.248 18H284.906V3.78125H287.855V8.9082ZM299.74 18H296.811V3.78125H299.74V18ZM287.855 11.2715V15.6465H290.189C290.938 15.6465 291.534 15.4414 291.977 15.0312C292.426 14.6211 292.65 14.071 292.65 13.3809C292.65 12.7363 292.436 12.2285 292.006 11.8574C291.583 11.4798 291 11.2845 290.258 11.2715H287.855ZM311.844 3.78125H314.783V18H311.844V8.55664L306.15 18H303.221V3.78125H306.15V13.2441L311.844 3.78125ZM312.41 0.0410156C312.41 0.906901 312.098 1.60677 311.473 2.14062C310.854 2.67448 310.04 2.94141 309.031 2.94141C308.022 2.94141 307.205 2.67773 306.58 2.15039C305.962 1.62305 305.652 0.919922 305.652 0.0410156H307.654C307.654 0.451172 307.775 0.770182 308.016 0.998047C308.263 1.2194 308.602 1.33008 309.031 1.33008C309.454 1.33008 309.786 1.2194 310.027 0.998047C310.268 0.770182 310.389 0.451172 310.389 0.0410156H312.41ZM324.176 3.78125H327.105V15.6465H332.799V3.78125H335.738V15.6465H337.682L337.486 21.4277H334.752V18H324.176V3.78125ZM349.033 11.8379H343.408V15.6465H350.01V18H340.479V3.78125H349.99V6.1543H343.408V9.54297H349.033V11.8379ZM364.301 18H361.371V11.9062H355.658V18H352.729V3.78125H355.658V9.54297H361.371V3.78125H364.301V18ZM378.279 6.1543H373.924V18H370.994V6.1543H366.697V3.78125H378.279V6.1543ZM383.889 12.9902V18H380.959V3.78125H386.506C387.574 3.78125 388.511 3.97656 389.318 4.36719C390.132 4.75781 390.757 5.31445 391.193 6.03711C391.63 6.75326 391.848 7.57031 391.848 8.48828C391.848 9.88151 391.369 10.9818 390.412 11.7891C389.462 12.5898 388.143 12.9902 386.457 12.9902H383.889ZM383.889 10.6172H386.506C387.281 10.6172 387.87 10.4349 388.273 10.0703C388.684 9.70573 388.889 9.1849 388.889 8.50781C388.889 7.8112 388.684 7.24805 388.273 6.81836C387.863 6.38867 387.297 6.16732 386.574 6.1543H383.889V10.6172Z" fill="#33348E"/>
</svg>
