<svg width="50" height="48" viewBox="0 0 50 48" fill="none" xmlns="http://www.w3.org/2000/svg">
<path d="M42.8856 40.3388L34.0034 31.4565L30.5079 34.952L39.3901 43.8343L42.8856 47.3298V40.3388Z" fill="#973D8E"/>
<path d="M34.0034 31.4565L30.5079 34.952L27.0124 31.4565H34.0034Z" fill="#ED704A"/>
<path d="M27.0124 31.4565L18.1301 40.3388V47.3298L21.6256 43.8343L30.5079 34.952L27.0124 31.4565Z" fill="#1DA39F"/>
<path d="M16.5258 6.99101L27.0124 17.4775L30.5079 13.982L20.0213 3.4955L16.5258 0V6.99101Z" fill="#1DA39F"/>
<path d="M27.0124 17.4777L30.5079 13.9822L34.0034 17.4777H27.0124Z" fill="#973D8E"/>
<path d="M34.0034 17.4775L44.4899 6.99101V0L40.9974 3.4955L30.5079 13.982L34.0034 17.4775Z" fill="#ED704A"/>
<path d="M6.99098 44.4901L23.5199 27.9612L20.0244 24.4688L3.49548 40.9976L-3.05176e-05 44.4901H6.99098Z" fill="#973D8E"/>
<path d="M23.5199 27.9611L20.0244 24.4687L23.5199 20.9731V27.9611Z" fill="#1DA39F"/>
<path d="M23.5199 20.973L6.99098 4.44409H-3.05176e-05L3.49548 7.93658L20.0244 24.4685L23.5199 20.973Z" fill="#ED704A"/>
<path d="M42.8162 15.6528L37.4989 20.9731L40.9914 24.4686L46.3117 19.1483L49.8072 15.6528H42.8162Z" fill="#973D8E"/>
<path d="M37.4989 20.9731L40.9914 24.4687L37.4989 27.9611V20.9731Z" fill="#1DA39F"/>
<path d="M37.4989 27.9612L42.8162 33.2815H49.8072L46.3117 29.786L40.9914 24.4688L37.4989 27.9612Z" fill="#ED704A"/>
</svg>
