<svg width="268" height="24" viewBox="0 0 268 24" fill="none" xmlns="http://www.w3.org/2000/svg">
<path d="M0.68042 5.81543H4.54753V12.7732H11.6805V5.81543H15.5477V23.3987H11.6805V16.3412H4.54753V23.3987H0.68042V5.81543Z" fill="#4A4A49"/>
<path d="M34.4784 23.396H30.6596V11.8672L22.9737 23.396H19.3332V5.81274H23.152V17.3416L30.8892 5.81274H34.4814V23.396H34.4784Z" fill="#4A4A49"/>
<path d="M38.2609 5.81543H42.128V13.5013L49.261 5.81543H53.9318L46.7746 13.2747L54.2581 23.3957H49.6115L44.1613 15.9122L42.128 18.021V23.3957H38.2609V5.81543Z" fill="#4A4A49"/>
<path d="M54.0587 14.6074C54.0587 9.6104 58.0013 5.51367 63.4273 5.51367C68.8534 5.51367 72.7447 9.55602 72.7447 14.6074C72.7447 19.6045 68.802 23.7012 63.376 23.7012C57.9499 23.6982 54.0587 19.6558 54.0587 14.6074ZM68.6993 14.6074C68.6993 11.5923 66.4878 9.08169 63.376 9.08169C60.2611 9.08169 58.101 11.544 58.101 14.6074C58.101 17.6226 60.3125 20.1332 63.4243 20.1332C66.5422 20.1332 68.6993 17.6709 68.6993 14.6074Z" fill="#4A4A49"/>
<path d="M90.0681 5.81543V23.3987H86.201V9.30792H81.1284V10.6403C81.1284 20.9878 79.4456 23.6253 75.4275 23.6253C74.7991 23.6253 73.8715 23.5256 73.3942 23.3987L73.645 20.2083C73.8202 20.2325 73.9954 20.2597 74.2492 20.2597C76.3338 20.2597 77.5151 18.9274 77.5151 9.45897V5.81543H90.0681Z" fill="#4A4A49"/>
<path d="M93.8476 5.81543H97.7147V11.7944H101.458C105.528 11.7944 107.887 14.0542 107.887 17.4953C107.887 21.1117 105.325 23.3987 101.207 23.3987H93.8476V5.81543ZM97.7178 15.1086V19.9062H101.159C103.068 19.9062 104.047 19.0784 104.047 17.444C104.047 15.9606 103.068 15.1086 101.135 15.1086H97.7178Z" fill="#4A4A49"/>
<path d="M109.736 14.6074C109.736 9.6104 113.503 5.51367 118.902 5.51367C122.217 5.51367 124.078 6.77049 125.709 8.37776L123.398 11.0394C122.041 9.80979 120.887 9.08169 118.875 9.08169C115.911 9.08169 113.775 11.544 113.775 14.6074C113.775 17.6226 115.86 20.1332 118.875 20.1332C120.884 20.1332 122.114 19.3295 123.498 18.0727L125.96 20.7102C124.15 22.6438 122.141 23.6982 118.751 23.6982C113.579 23.6982 109.736 19.7042 109.736 14.6074Z" fill="#4A4A49"/>
<path d="M128.301 5.81543H132.168V13.5013L139.301 5.81543H143.972L136.815 13.2747L144.298 23.3957H139.652L134.202 15.9122L132.168 18.021V23.3957H128.301V5.81543Z" fill="#4A4A49"/>
<path d="M161.459 23.396H157.64V11.8672L149.954 23.396H146.31V5.81274H150.129V17.3416L157.867 5.81274H161.459V23.396Z" fill="#4A4A49"/>
<path d="M180.386 23.3958H176.568V11.867L168.882 23.3958H165.238V5.81252H169.057V17.3414L176.794 5.81252H180.386V23.3958ZM168.658 0.667447L170.894 0.265625C171.22 1.29585 171.824 1.94843 172.879 1.94843C173.933 1.94843 174.537 1.29585 174.864 0.265625L177.099 0.667447C176.749 3.07835 175.19 4.48622 172.879 4.48622C170.565 4.4832 169.009 3.07835 168.658 0.667447Z" fill="#4A4A49"/>
<path d="M192.139 5.81543H196.308L200.93 13.2506L205.553 5.81543H209.722V23.3987H205.879V11.9212L200.93 19.4319H200.831L195.933 11.9968V23.3987H192.142V5.81543H192.139Z" fill="#4A4A49"/>
<path d="M212.556 14.6074C212.556 9.6104 216.499 5.51367 221.925 5.51367C227.351 5.51367 231.242 9.55602 231.242 14.6074C231.242 19.6045 227.299 23.7012 221.873 23.7012C216.45 23.6982 212.556 19.6558 212.556 14.6074ZM227.2 14.6074C227.2 11.5923 224.988 9.08169 221.876 9.08169C218.761 9.08169 216.601 11.544 216.601 14.6074C216.601 17.6226 218.813 20.1332 221.925 20.1332C225.039 20.1332 227.2 17.6709 227.2 14.6074Z" fill="#4A4A49"/>
<path d="M248.565 5.81543V23.3987H244.698V9.30792H239.626V10.6403C239.626 20.9878 237.943 23.6253 233.925 23.6253C233.296 23.6253 232.369 23.5256 231.891 23.3987L232.142 20.2083C232.317 20.2325 232.493 20.2597 232.746 20.2597C234.831 20.2597 236.012 18.9274 236.012 9.45897V5.81543H248.565Z" fill="#4A4A49"/>
<path d="M267.288 5.81543V23.3987H263.42V9.30792H258.348V10.6403C258.348 20.9878 256.665 23.6253 252.647 23.6253C252.019 23.6253 251.091 23.5256 250.614 23.3987L250.864 20.2083C251.04 20.2325 251.215 20.2597 251.469 20.2597C253.553 20.2597 254.735 18.9274 254.735 9.45897V5.81543H267.288Z" fill="#4A4A49"/>
</svg>
