<svg width="624" height="370" viewBox="0 0 624 370" fill="none" xmlns="http://www.w3.org/2000/svg">
<rect width="624" height="370" fill="#EDFCFF"/>
<path d="M165.528 181.4H171.005V191.255H181.108V181.4H186.585V206.304H181.108V196.308H171.005V206.304H165.528V181.4Z" fill="#4A4A49"/>
<path d="M213.397 206.3H207.989V189.971L197.103 206.3H191.947V181.396H197.355V197.725L208.314 181.396H213.402V206.3H213.397Z" fill="#4A4A49"/>
<path d="M218.755 181.4H224.232V192.286L234.335 181.4H240.95L230.813 191.965L241.412 206.3H234.831L227.112 195.701L224.232 198.687V206.3H218.755V181.4Z" fill="#4A4A49"/>
<path d="M241.13 193.853C241.13 186.775 246.714 180.973 254.399 180.973C262.084 180.973 267.596 186.698 267.596 193.853C267.596 200.93 262.011 206.732 254.326 206.732C246.641 206.728 241.13 201.003 241.13 193.853ZM261.866 193.853C261.866 189.582 258.734 186.026 254.326 186.026C249.915 186.026 246.855 189.514 246.855 193.853C246.855 198.123 249.987 201.679 254.395 201.679C258.811 201.679 261.866 198.191 261.866 193.853Z" fill="#4A4A49"/>
<path d="M292.131 181.4V206.304H286.654V186.347H279.47V188.234C279.47 202.889 277.086 206.625 271.395 206.625C270.505 206.625 269.192 206.484 268.516 206.304L268.871 201.785C269.119 201.82 269.367 201.858 269.726 201.858C272.679 201.858 274.352 199.971 274.352 186.561V181.4H292.131V181.4Z" fill="#4A4A49"/>
<path d="M297.485 181.4H302.962V189.868H308.263C314.027 189.868 317.369 193.069 317.369 197.943C317.369 203.065 313.741 206.304 307.908 206.304H297.485V181.4V181.4ZM302.966 194.562V201.358H307.84C310.544 201.358 311.931 200.185 311.931 197.87C311.931 195.769 310.544 194.562 307.806 194.562H302.966Z" fill="#4A4A49"/>
<path d="M319.988 193.853C319.988 186.775 325.324 180.973 332.971 180.973C337.665 180.973 340.301 182.753 342.611 185.029L339.338 188.799C337.416 187.057 335.782 186.026 332.932 186.026C328.734 186.026 325.709 189.514 325.709 193.853C325.709 198.123 328.662 201.679 332.932 201.679C335.778 201.679 337.519 200.541 339.479 198.761L342.966 202.496C340.403 205.235 337.558 206.728 332.757 206.728C325.431 206.728 319.988 201.071 319.988 193.853Z" fill="#4A4A49"/>
<path d="M346.283 181.4H351.76V192.286L361.863 181.4H368.478L358.341 191.965L368.94 206.3H362.359L354.64 195.701L351.76 198.687V206.3H346.283V181.4Z" fill="#4A4A49"/>
<path d="M393.245 206.3H387.836V189.971L376.95 206.3H371.79V181.396H377.199V197.725L388.157 181.396H393.245V206.3Z" fill="#4A4A49"/>
<path d="M420.053 206.3H414.644V189.971L403.758 206.3H398.598V181.396H404.007V197.725L414.965 181.396H420.053V206.3ZM403.442 174.109L406.608 173.54C407.07 174.999 407.926 175.923 409.42 175.923C410.913 175.923 411.769 174.999 412.231 173.54L415.397 174.109C414.901 177.524 412.693 179.518 409.42 179.518C406.142 179.513 403.938 177.524 403.442 174.109Z" fill="#4A4A49"/>
<path d="M436.698 181.4H442.604L449.15 191.931L455.697 181.4H461.602V206.304H456.159V190.048L449.15 200.686H449.009L442.073 190.155V206.304H436.703V181.4H436.698Z" fill="#4A4A49"/>
<path d="M465.616 193.853C465.616 186.775 471.2 180.973 478.885 180.973C486.571 180.973 492.082 186.698 492.082 193.853C492.082 200.93 486.498 206.732 478.813 206.732C471.132 206.728 465.616 201.003 465.616 193.853ZM486.357 193.853C486.357 189.582 483.224 186.026 478.817 186.026C474.405 186.026 471.346 189.514 471.346 193.853C471.346 198.123 474.478 201.679 478.885 201.679C483.297 201.679 486.357 198.191 486.357 193.853Z" fill="#4A4A49"/>
<path d="M516.618 181.4V206.304H511.141V186.347H503.956V188.234C503.956 202.889 501.573 206.625 495.882 206.625C494.992 206.625 493.678 206.484 493.002 206.304L493.357 201.785C493.605 201.82 493.853 201.858 494.213 201.858C497.165 201.858 498.839 199.971 498.839 186.561V181.4H516.618V181.4Z" fill="#4A4A49"/>
<path d="M543.135 181.4V206.304H537.658V186.347H530.473V188.234C530.473 202.889 528.09 206.625 522.399 206.625C521.509 206.625 520.195 206.484 519.519 206.304L519.874 201.785C520.122 201.82 520.371 201.858 520.73 201.858C523.683 201.858 525.356 199.971 525.356 186.561V181.4H543.135V181.4Z" fill="#4A4A49"/>
<path d="M141.741 216.134L129.16 203.553L124.21 208.504L136.79 221.084L141.741 226.035V216.134Z" fill="#973D8E"/>
<path d="M129.16 203.553L124.21 208.504L119.259 203.553H129.16Z" fill="#ED704A"/>
<path d="M119.259 203.553L106.678 216.134V226.035L111.629 221.084L124.21 208.504L119.259 203.553Z" fill="#1DA39F"/>
<path d="M104.406 168.902L119.259 183.754L124.21 178.803L109.357 163.951L104.406 159V168.902Z" fill="#1DA39F"/>
<path d="M119.259 183.754L124.21 178.803L129.16 183.754H119.259Z" fill="#973D8E"/>
<path d="M129.16 183.754L144.013 168.902V159L139.066 163.951L124.21 178.803L129.16 183.754Z" fill="#ED704A"/>
<path d="M90.9016 222.013L114.312 198.603L109.361 193.656L85.9508 217.067L80.9999 222.013H90.9016Z" fill="#973D8E"/>
<path d="M114.312 198.602L109.361 193.656L114.312 188.705V198.602Z" fill="#1DA39F"/>
<path d="M114.312 188.705L90.9016 165.294H80.9999L85.9508 170.241L109.361 193.656L114.312 188.705Z" fill="#ED704A"/>
<path d="M141.642 181.17L134.111 188.705L139.058 193.656L146.593 186.121L151.544 181.17H141.642Z" fill="#973D8E"/>
<path d="M134.111 188.705L139.058 193.656L134.111 198.602V188.705Z" fill="#1DA39F"/>
<path d="M134.111 198.603L141.642 206.138H151.544L146.593 201.187L139.058 193.656L134.111 198.603Z" fill="#ED704A"/>
<rect y="100" width="32" height="88" transform="rotate(-90 0 100)" fill="#F1AA1E"/>
<rect x="120" y="68" width="32" height="36" transform="rotate(180 120 68)" fill="#22A09C"/>
<rect x="120" y="32" width="32" height="145" transform="rotate(-90 120 32)" fill="#8557A4"/>
<path d="M88 100L120 68L88 68L88 100Z" fill="#8557A4"/>
<path d="M265 32L297 5.08584e-07L265 1.90735e-06L265 32Z" fill="#DC112E"/>
<path d="M88 32L120 -9.53674e-07V32L88 32Z" fill="#33348E"/>
<rect x="624" y="278" width="43" height="152" transform="rotate(90 624 278)" fill="#F1AA1E"/>
<rect x="429" y="321" width="43" height="49" fill="#22A09C"/>
<path d="M472 278L429 321L472 321L472 278Z" fill="#8557A4"/>
</svg>
