<svg width="1119" height="206" viewBox="0 0 1119 206" fill="none" xmlns="http://www.w3.org/2000/svg">
<g clip-path="url(#clip0_20_8)">
<path d="M39.5 -0.5L0.5 21.5V205.5H1119V6.5L1087.5 28L1042.5 14L993 28L919.5 -0.5L857.5 28L818 14L774.5 40.5L684.5 -0.5L635 28L607.5 -0.5L551 40.5L473 -0.5L432.5 28L416.5 14L398.5 21.5L366 -0.5L308.5 40.5L263 -0.5L205.5 28L177 14L127.5 40.5L39.5 -0.5Z" fill="#8557A4"/>
<path d="M-54.5 212.5L-0.5 205.5L13.5 199.5L42.5 212.5L115.5 194.5L167.5 212.5L244 186.5L282 205.5L309 194.5L338 205.5L382 186.5L467 194.5H493.5L538.5 180.5L580.5 194.5L639.5 174.5L732.5 194.5L803 180.5L853 186.5L934 174.5L1003 186.5L1082 174.5L1249.5 194.5V232.5H-54.5V212.5Z" fill="#F1AA1E"/>
<path d="M1224.5 206.5L1032 175.5L948 195.5L904 189.5L847 206.5L735.5 189.5L676.5 200.5L640.5 189.5L565.5 206.5L475 189.5L423 206.5L409 195.5L390 206.5L339 195.5L284 224.5L216 195.5L-82.5 250.5H1218.5L1224.5 206.5Z" fill="#20A09C"/>
</g>
<defs>
<clipPath id="clip0_20_8">
<rect width="1119" height="206" fill="white"/>
</clipPath>
</defs>
</svg>
